<svg version="1.1" id="Layer_1" xmlns="http://www.w3.org/2000/svg" xmlns:xlink="http://www.w3.org/1999/xlink" x="0px" y="0px"
	 width="100%" viewBox="0 0 2524 808" enable-background="new 0 0 2524 808" xml:space="preserve">
<path fill="#FFFFFF" opacity="1.000000" stroke="none" 
	d="
M1594.000000,809.000000 
	C1062.666748,809.000000 531.833435,809.000000 1.000143,809.000000 
	C1.000095,539.666748 1.000095,270.333527 1.000047,1.000215 
	C842.333191,1.000143 1683.666382,1.000143 2524.999512,1.000072 
	C2524.999756,270.333099 2524.999756,539.666199 2525.000000,808.999634 
	C2214.833252,809.000000 1904.666626,809.000000 1594.000000,809.000000 
M9.530129,494.700165 
	C9.679312,503.800934 9.828494,512.901672 9.848520,522.932190 
	C9.848520,615.155823 9.848520,707.379456 9.848520,799.770752 
	C49.630150,799.770752 88.868073,799.770752 128.316620,799.770752 
	C128.441299,798.772034 128.627502,797.974121 128.628006,797.176025 
	C128.644455,771.854431 128.712677,746.532227 128.492432,721.212585 
	C128.477188,719.460205 126.693291,717.041687 125.058174,716.088074 
	C103.293663,703.394287 83.845154,687.890442 67.444862,668.736511 
	C31.312744,626.537598 13.883996,577.066833 11.012818,521.136108 
	C10.969658,512.073425 10.926498,503.010773 10.984415,493.054108 
	C12.945351,477.062592 13.868928,460.861664 17.047300,445.115875 
	C30.611391,377.918701 65.531158,325.284821 125.133652,290.051300 
	C127.764221,288.496246 128.740875,286.802155 128.717239,283.752014 
	C128.576599,265.598907 128.654312,247.444183 128.635071,229.290009 
	C128.633545,227.838745 128.453568,226.387680 128.337830,224.657043 
	C88.813957,224.657043 49.600739,224.657043 9.796025,224.657043 
	C9.796025,226.797073 9.796025,228.741440 9.796025,230.685791 
	C9.796025,316.626740 9.795176,402.567719 9.801790,488.508667 
	C9.801930,490.338318 9.888126,492.167969 9.530129,494.700165 
M398.130768,531.500000 
	C398.130768,552.921448 398.130768,574.342834 398.130768,595.717773 
	C438.123077,595.717773 477.380798,595.717773 517.225037,595.717773 
	C517.225037,470.244843 517.225037,345.053314 517.225037,219.351318 
	C556.735107,219.351318 595.658997,219.351318 634.628418,219.351318 
	C634.628418,186.731323 634.628418,154.624893 634.628418,122.221542 
	C632.959656,122.140747 631.501160,122.008362 630.042664,122.008278 
	C467.221985,121.998962 304.401276,122.016167 141.580643,121.909843 
	C137.218369,121.906990 135.874374,123.040108 135.904099,127.489281 
	C136.092178,155.652496 135.976822,183.817642 136.039703,211.981995 
	C136.045151,214.417175 136.616577,216.851105 136.977463,219.698914 
	C224.092819,219.698914 310.846039,219.698914 398.130829,219.698914 
	C398.130829,323.610840 398.130829,427.055420 398.130768,531.500000 
M483.500000,741.001160 
	C548.087524,741.001160 612.675049,741.001160 677.199524,741.001160 
	C677.199524,708.444702 677.199524,676.566223 677.199524,644.354675 
	C674.605469,644.354675 672.455383,644.354675 670.305237,644.354675 
	C540.306763,644.354675 410.307953,644.488647 280.310272,644.165466 
	C265.931030,644.129700 251.252914,642.871277 237.238556,639.790771 
	C191.299576,629.692810 157.194214,604.251221 138.701691,559.918335 
	C138.381516,559.150818 137.818146,558.484741 136.973663,557.145630 
	C136.880417,558.656982 136.804199,559.316101 136.804123,559.975281 
	C136.798172,609.641357 136.833344,659.307495 136.717010,708.973328 
	C136.709412,712.205994 137.981964,713.640686 140.651901,714.946228 
	C178.479538,733.444519 218.639801,741.227417 260.511017,741.197937 
	C334.507355,741.145813 408.503662,741.068176 483.500000,741.001160 
M347.407776,261.799011 
	C312.274841,262.196747 277.093811,261.591705 242.022369,263.272247 
	C206.454010,264.976593 172.604889,274.757812 140.663483,290.790405 
	C137.663528,292.296204 136.719315,294.040588 136.726608,297.318909 
	C136.832352,344.799408 136.796692,392.280151 136.813019,439.760864 
	C136.813431,440.927795 137.021515,442.094666 137.159195,443.539093 
	C137.712479,443.029633 137.865707,442.950592 137.921707,442.827362 
	C138.472046,441.616119 139.024857,440.405396 139.542252,439.179901 
	C151.046219,411.932800 169.980026,391.366089 195.745560,377.069183 
	C220.148453,363.528442 246.602570,357.650299 274.289886,357.271729 
	C298.941925,356.934662 323.602203,357.205658 348.258850,357.190948 
	C350.018646,357.189911 351.778412,357.046295 353.569427,356.967590 
	C353.569427,325.051575 353.569427,293.649353 353.569427,261.798920 
	C351.641174,261.798920 350.009827,261.798920 347.407776,261.799011 
M48.500000,115.000992 
	C75.083534,115.000992 101.667061,115.000992 128.246857,115.000992 
	C128.246857,79.642693 128.246857,44.941734 128.246857,10.315900 
	C88.601021,10.315900 49.353672,10.315900 10.182262,10.315900 
	C10.182262,45.339294 10.182262,80.044418 10.182262,115.000992 
	C22.876392,115.000992 35.188198,115.000992 48.500000,115.000992 
M2290.625732,482.801880 
	C2286.965820,471.617523 2283.305908,460.433167 2279.684814,449.367126 
	C2270.068848,449.367126 2260.671631,449.367126 2251.423828,449.367126 
	C2251.423828,501.158661 2251.423828,552.577332 2251.423828,603.868042 
	C2260.636963,603.868042 2269.525879,603.868042 2278.811035,603.868042 
	C2278.811035,580.353210 2278.811035,557.250610 2278.811035,534.011658 
	C2281.583740,533.618103 2283.966797,533.279846 2286.278564,532.951721 
	C2286.681641,533.942688 2286.904297,534.380493 2287.041748,534.843567 
	C2293.460449,556.489380 2299.836426,578.148071 2306.353027,599.764343 
	C2306.851074,601.416260 2308.290527,604.027466 2309.369385,604.066589 
	C2318.774170,604.407715 2328.196289,604.263550 2337.612793,604.263550 
	C2337.612793,552.138550 2337.612793,500.733215 2337.612793,449.310974 
	C2328.429932,449.310974 2319.533447,449.310974 2310.298340,449.310974 
	C2310.298340,451.254669 2310.298340,452.896698 2310.298340,454.538727 
	C2310.298340,473.703003 2310.298584,492.867279 2310.298096,512.031555 
	C2310.297852,519.509521 2310.297119,519.509521 2302.324707,518.988037 
	C2298.518555,507.223999 2294.690430,495.391571 2290.625732,482.801880 
M1072.301147,466.501709 
	C1072.301147,512.273315 1072.301147,558.044922 1072.301147,603.962891 
	C1081.739136,603.962891 1090.629639,603.962891 1100.049316,603.962891 
	C1100.049316,580.445435 1100.049316,557.240845 1100.049316,534.075195 
	C1102.843872,533.597656 1105.114258,533.209656 1107.663940,532.773926 
	C1108.238037,534.540222 1108.772583,536.074524 1109.236938,537.629822 
	C1115.506348,558.626587 1121.739014,579.634460 1128.090332,600.606384 
	C1128.500122,601.959473 1129.779297,604.065063 1130.701538,604.090393 
	C1140.122681,604.348755 1149.553833,604.248535 1159.063721,604.248535 
	C1159.063721,552.234985 1159.063721,500.831146 1159.063721,449.311279 
	C1149.962158,449.311279 1141.081055,449.311279 1131.791748,449.311279 
	C1131.791748,472.534576 1131.791748,495.445679 1131.791748,518.617188 
	C1129.015015,518.948975 1126.615234,519.235779 1124.153809,519.529907 
	C1123.668701,518.293640 1123.262817,517.395447 1122.958740,516.463989 
	C1116.005859,495.167603 1109.088257,473.859528 1102.061157,452.587677 
	C1101.619995,451.251892 1100.366699,449.189697 1099.441650,449.162750 
	C1090.518188,448.902740 1081.584106,449.006836 1072.301147,449.006836 
	C1072.301147,454.897278 1072.301147,460.199982 1072.301147,466.501709 
M1753.127319,255.158203 
	C1752.103760,253.683655 1751.128418,250.971634 1750.049316,250.929703 
	C1741.158691,250.584351 1732.248779,250.734528 1723.389160,250.734528 
	C1723.389160,302.899384 1723.389160,354.283661 1723.389160,405.691345 
	C1732.566650,405.691345 1741.459473,405.691345 1750.743408,405.691345 
	C1750.743408,382.288971 1750.743408,359.193909 1750.743408,335.676849 
	C1753.629639,335.345337 1756.171021,335.053436 1758.670532,334.766327 
	C1765.821289,358.799591 1772.817139,382.311981 1779.764771,405.662781 
	C1790.074219,405.662781 1799.964478,405.662781 1809.763184,405.662781 
	C1809.763184,353.911255 1809.763184,302.499939 1809.763184,251.095032 
	C1800.650635,251.095032 1791.781982,251.095032 1782.615601,251.095032 
	C1782.615601,274.243622 1782.615601,297.018890 1782.615601,319.682617 
	C1775.092651,322.315063 1775.070068,322.322418 1772.855103,315.540070 
	C1766.366089,295.670837 1759.896851,275.795197 1753.127319,255.158203 
M1155.109741,260.622070 
	C1149.456421,266.957672 1146.284424,274.518860 1146.216064,282.852722 
	C1145.967773,313.117584 1145.805908,343.390625 1146.266113,373.650665 
	C1146.505615,389.399719 1156.456421,402.152527 1171.647827,406.393585 
	C1179.186157,408.498108 1187.386353,409.378082 1195.218384,409.069550 
	C1218.473022,408.153229 1235.356567,394.304901 1235.077881,367.641724 
	C1234.823975,343.363251 1235.262939,319.078186 1235.226685,294.796295 
	C1235.218506,289.329865 1234.769531,283.829926 1234.059204,278.406250 
	C1232.808838,268.859467 1227.932983,261.317291 1220.266357,255.595535 
	C1204.182617,243.592087 1170.122925,243.689117 1155.109741,260.622070 
M2159.867920,607.695557 
	C2164.680176,607.432861 2169.529053,607.459839 2174.298340,606.856567 
	C2193.409912,604.439026 2207.443359,590.625916 2207.756104,572.414124 
	C2208.281250,541.807007 2208.326172,511.175262 2207.698486,480.571808 
	C2207.396484,465.855438 2199.302002,455.197815 2185.571289,449.520599 
	C2173.855225,444.676208 2161.637207,444.275604 2149.345459,447.054993 
	C2132.010986,450.974579 2120.517090,461.887207 2119.886719,479.535217 
	C2118.758545,511.109497 2118.973877,542.778137 2119.991699,574.363403 
	C2120.510742,590.471924 2130.890137,600.626282 2146.265869,605.192566 
	C2150.379150,606.414124 2154.721191,606.866455 2159.867920,607.695557 
M2305.718262,343.500000 
	C2305.850586,352.319855 2305.816895,361.145935 2306.149170,369.958252 
	C2306.865723,388.969055 2315.890137,402.339478 2332.688721,406.581665 
	C2341.517822,408.811249 2351.178955,409.412842 2360.271484,408.597809 
	C2381.304199,406.712494 2394.289795,392.798248 2394.888184,371.772339 
	C2395.631348,345.659668 2395.704834,319.519928 2395.560791,293.394653 
	C2395.512695,284.683594 2395.388916,275.741547 2390.951416,267.647156 
	C2383.663086,254.352524 2371.593018,249.284500 2357.381592,247.451019 
	C2326.267334,243.436798 2306.677246,259.905334 2306.064941,291.056152 
	C2305.727783,308.199738 2305.819824,325.351746 2305.718262,343.500000 
M1111.276245,332.500092 
	C1111.276245,305.389648 1111.276245,278.279175 1111.276245,250.947815 
	C1102.019531,250.947815 1093.265869,250.947815 1084.114502,250.947815 
	C1084.114502,273.981201 1084.114502,296.919647 1084.114502,320.146942 
	C1081.361938,320.585632 1078.950317,320.969971 1076.327515,321.388000 
	C1075.566650,319.421082 1074.836914,317.775146 1074.285400,316.071533 
	C1067.741821,295.858673 1061.257202,275.626617 1054.642090,255.437317 
	C1054.084961,253.737167 1052.752197,251.002365 1051.690308,250.959290 
	C1042.783936,250.597961 1033.856445,250.753708 1025.003662,250.753708 
	C1025.003662,302.852234 1025.003662,354.257843 1025.003662,405.626160 
	C1034.166870,405.626160 1043.045288,405.626160 1052.220459,405.626160 
	C1052.220459,382.149719 1052.220459,359.046478 1052.220459,335.613281 
	C1054.904785,335.300537 1057.322388,335.018860 1059.983154,334.708862 
	C1067.134033,358.707672 1074.177002,382.344055 1081.141235,405.716187 
	C1091.492554,405.716187 1101.264404,405.716187 1111.276245,405.716187 
	C1111.276245,381.455353 1111.276245,357.477722 1111.276245,332.500092 
M1538.992554,501.501160 
	C1538.663574,494.358429 1538.538330,487.199219 1537.963013,480.076385 
	C1536.801758,465.699951 1529.595947,455.280762 1516.258423,449.786560 
	C1501.152710,443.563995 1485.727539,443.614960 1470.718994,450.124817 
	C1458.664551,455.353363 1450.709473,464.940399 1450.277588,478.023376 
	C1449.283691,508.122467 1448.863525,538.279053 1449.545044,568.382080 
	C1450.039795,590.230286 1460.880127,602.530823 1481.327393,606.293701 
	C1489.186035,607.739929 1497.640015,607.684448 1505.584595,606.588013 
	C1524.967407,603.913025 1537.196411,590.866272 1538.016968,571.397339 
	C1538.983765,548.458618 1538.727417,525.468323 1538.992554,501.501160 
M1668.004272,493.422974 
	C1667.259277,485.338959 1667.400513,477.045105 1665.548828,469.223083 
	C1663.144043,459.065186 1656.124390,452.610046 1645.441528,450.947357 
	C1641.342651,450.309326 1637.197388,449.624634 1633.067627,449.588013 
	C1615.969604,449.436279 1598.869629,449.524414 1581.686523,449.524414 
	C1581.686523,500.967072 1581.686523,552.468445 1581.686523,604.053833 
	C1593.178711,604.053833 1604.281982,604.053833 1615.866455,604.053833 
	C1615.866455,579.599060 1615.866455,555.366699 1615.866455,530.707092 
	C1617.961914,530.707092 1619.581299,530.666138 1621.198120,530.713684 
	C1632.208740,531.037170 1635.730347,533.682800 1636.160278,544.793152 
	C1636.855347,562.748474 1636.582642,580.741150 1636.715210,598.718079 
	C1636.728149,600.478149 1636.716919,602.238403 1636.716919,604.040833 
	C1647.457520,604.040833 1657.534668,604.040833 1667.682251,604.040833 
	C1667.682251,584.183350 1667.977295,564.560669 1667.526123,544.955200 
	C1667.363037,537.863892 1663.006836,532.610352 1656.247192,529.810608 
	C1653.528809,528.684692 1650.751343,527.700928 1647.797852,526.575073 
	C1647.973267,523.980286 1648.136230,521.568604 1648.288086,519.320129 
	C1664.411499,516.035522 1667.248901,512.716553 1667.942017,496.890289 
	C1667.978394,496.058594 1667.984253,495.225616 1668.004272,493.422974 
M2464.280518,353.500336 
	C2464.280518,346.558746 2464.280518,339.617157 2464.280518,332.772156 
	C2479.656250,330.782288 2484.959717,335.340210 2485.106445,350.053864 
	C2485.109863,350.386993 2485.106201,350.720184 2485.107666,351.053345 
	C2485.172363,367.542175 2485.238037,384.031006 2485.301270,400.519836 
	C2485.308105,402.278290 2485.302246,404.036804 2485.302246,405.730408 
	C2496.101562,405.730408 2506.197021,405.730408 2516.049072,405.730408 
	C2516.049072,386.018402 2516.187988,366.579498 2515.977539,347.144318 
	C2515.897949,339.810760 2511.781250,334.708984 2505.180664,331.713928 
	C2502.346924,330.428101 2499.363770,329.471619 2496.365479,328.333893 
	C2496.589355,325.826569 2496.794434,323.528900 2497.022461,320.974274 
	C2498.701660,320.625854 2500.298584,320.281647 2501.901123,319.964233 
	C2510.852539,318.191132 2514.886719,315.030182 2515.463867,305.935120 
	C2516.152832,295.077148 2516.164551,283.970886 2514.642578,273.231140 
	C2512.835205,260.475800 2503.363281,253.067902 2490.437500,252.069916 
	C2483.309326,251.519547 2476.165527,250.970520 2469.022217,250.863571 
	C2456.112061,250.670273 2443.197266,250.808853 2430.368652,250.808853 
	C2430.368652,302.862946 2430.368652,354.387024 2430.368652,405.713257 
	C2441.846191,405.713257 2452.950928,405.713257 2464.280518,405.713257 
	C2464.280518,388.449829 2464.280518,371.475037 2464.280518,353.500336 
M900.601868,533.906616 
	C895.901062,531.273804 891.200195,528.640930 885.972229,525.712830 
	C886.100159,524.083862 886.290466,521.660767 886.476257,519.295227 
	C888.255676,518.918823 889.536255,518.570129 890.840088,518.384644 
	C899.558655,517.144226 905.095276,512.485291 905.248230,503.413116 
	C905.426636,492.830780 905.904968,482.076721 904.331665,471.688110 
	C902.522095,459.739563 894.652954,452.122101 882.203918,450.668793 
	C874.123474,449.725494 865.959412,449.259125 857.822388,449.095306 
	C845.216125,448.841461 832.601013,449.028320 820.126587,449.028320 
	C820.126587,501.077087 820.126587,552.605713 820.126587,603.946411 
	C831.604126,603.946411 842.675903,603.946411 854.165039,603.946411 
	C854.165039,579.366821 854.165039,555.115173 854.165039,530.893860 
	C870.739624,529.974487 874.595398,533.486816 874.994812,549.464539 
	C875.019775,550.463562 874.999207,551.463745 874.999207,552.463379 
	C874.999329,568.124268 874.999268,583.785217 874.999329,599.446106 
	C874.999329,601.015320 874.999329,602.584534 874.999329,603.934082 
	C885.852600,603.934082 895.937622,603.934082 906.046936,603.934082 
	C906.046936,586.956421 906.040100,570.321533 906.050232,553.686646 
	C906.054382,546.841370 906.426453,539.910461 900.601868,533.906616 
M2085.506104,250.753250 
	C2072.727783,250.753250 2059.949463,250.753250 2047.066040,250.753250 
	C2047.066040,302.733978 2047.066040,354.244904 2047.066040,405.750732 
	C2058.496338,405.750732 2069.582031,405.750732 2081.230469,405.750732 
	C2081.230469,381.133087 2081.230469,356.760925 2081.230469,332.497040 
	C2083.954834,332.497040 2086.134766,332.297211 2088.266846,332.531219 
	C2098.043213,333.604279 2100.402100,335.633209 2101.436279,345.361389 
	C2102.120117,351.792694 2101.946289,358.325348 2101.979248,364.813538 
	C2102.048096,378.422852 2102.000000,392.032776 2102.000000,405.667053 
	C2112.696533,405.667053 2122.917480,405.667053 2132.901123,405.667053 
	C2132.901123,386.017090 2133.057617,366.699280 2132.818848,347.386292 
	C2132.731689,340.348969 2128.904541,335.129150 2122.568115,332.043549 
	C2119.501709,330.550323 2116.204346,329.531830 2113.267578,328.397278 
	C2112.355225,322.940552 2113.826416,320.251709 2119.692627,319.599762 
	C2126.550537,318.837555 2131.487793,314.644043 2131.932129,307.246429 
	C2132.498535,297.818726 2133.442871,288.260101 2132.506836,278.930206 
	C2130.929932,263.208191 2123.397949,254.591202 2110.369141,252.567001 
	C2102.514160,251.346634 2094.456299,251.432404 2085.506104,250.753250 
M261.930389,436.250092 
	C260.783325,436.441833 259.636871,436.637238 258.489105,436.824829 
	C225.058380,442.289001 203.735733,473.615051 211.028519,506.552277 
	C217.795914,537.116699 249.247772,556.864258 279.910736,549.801147 
	C310.738617,542.700073 330.084381,511.579132 323.201813,480.951355 
	C317.766113,456.762390 294.658325,434.307373 261.930389,436.250092 
M957.000366,477.394379 
	C951.385925,519.528381 945.771484,561.662354 940.149109,603.855896 
	C952.357361,603.855896 964.065369,603.855896 975.800659,603.855896 
	C976.674988,594.045898 977.512024,584.654358 978.351257,575.238403 
	C986.156006,575.238403 993.548584,575.238403 1000.942200,575.238403 
	C1001.749268,584.994995 1002.528076,594.408752 1003.319702,603.978271 
	C1014.991028,603.978271 1026.381348,603.978271 1038.180908,603.978271 
	C1030.475342,552.171082 1022.822815,500.719879 1015.161194,449.207520 
	C996.901428,449.207520 978.957214,449.207520 960.697571,449.207520 
	C959.474182,458.414673 958.272217,467.460785 957.000366,477.394379 
M1809.772095,586.154236 
	C1808.975830,592.020630 1808.179565,597.887085 1807.344116,604.041870 
	C1819.388428,604.041870 1830.971558,604.041870 1842.937622,604.041870 
	C1843.807007,594.370544 1844.664307,584.833130 1845.526489,575.241455 
	C1853.252319,575.241455 1860.625488,575.241455 1868.102051,575.241455 
	C1868.901123,584.987427 1869.672485,594.396545 1870.457886,603.975525 
	C1882.190308,603.975525 1893.583252,603.975525 1905.344360,603.975525 
	C1897.642090,552.200684 1889.992188,500.778656 1882.319702,449.203918 
	C1864.043701,449.203918 1846.110229,449.203918 1827.973877,449.203918 
	C1827.660278,451.273773 1827.332642,453.232788 1827.070312,455.200470 
	C1824.543091,474.156097 1822.011475,493.111145 1819.511353,512.070312 
	C1816.293823,536.469543 1813.103760,560.872375 1809.772095,586.154236 
M1536.004517,334.500000 
	C1536.004517,324.834198 1535.913818,315.167297 1536.030273,305.502899 
	C1536.142578,296.186401 1536.067505,286.839813 1536.822266,277.567291 
	C1537.483154,269.448608 1541.247192,266.602539 1548.921875,266.897675 
	C1555.339355,267.144501 1558.792847,270.896881 1559.016113,278.614624 
	C1559.300293,288.438507 1559.223267,298.272827 1559.296997,308.102661 
	C1559.310059,309.855225 1559.298828,311.608002 1559.298828,313.445190 
	C1571.182861,313.445190 1582.281128,313.445190 1594.658569,313.445190 
	C1593.747559,300.906342 1593.129883,288.674652 1591.885986,276.506927 
	C1590.951782,267.367889 1586.031006,260.263031 1578.260864,255.456818 
	C1562.685181,245.822479 1545.900757,244.841171 1528.780518,250.006134 
	C1511.594849,255.190842 1502.599121,267.607208 1502.010864,285.491608 
	C1501.846924,290.479095 1501.511841,295.464752 1501.488647,300.452362 
	C1501.404907,318.444366 1501.138672,336.442810 1501.517090,354.426727 
	C1501.708740,363.531860 1502.763794,372.665375 1504.091797,381.688446 
	C1505.792114,393.242035 1512.924927,400.825562 1523.559204,405.029785 
	C1537.671875,410.609070 1552.223022,411.075806 1566.600220,406.599030 
	C1576.892456,403.394287 1585.800049,397.350861 1589.808472,386.870453 
	C1594.448608,374.738647 1593.928101,361.831268 1593.854736,349.108917 
	C1582.066650,349.108917 1570.846680,349.108917 1559.065552,349.108917 
	C1559.065552,358.469055 1559.240479,367.446625 1558.991455,376.412415 
	C1558.867554,380.873199 1558.397949,385.493256 1553.886719,388.213196 
	C1546.730835,392.527649 1537.551758,388.745789 1537.046753,380.418121 
	C1536.140869,365.479279 1536.293945,350.476227 1536.004517,334.500000 
M1370.028320,297.139832 
	C1369.386108,290.436371 1368.218140,283.726929 1368.293945,277.031616 
	C1368.341431,272.854401 1370.891235,269.198334 1375.291992,267.508728 
	C1381.783813,265.016266 1388.093628,268.231201 1389.156616,275.143707 
	C1390.002075,280.642090 1390.013306,286.268707 1390.389038,291.752655 
	C1400.749268,291.752655 1410.848755,291.752655 1421.628052,291.752655 
	C1421.140869,285.210541 1420.655151,278.959503 1420.214233,272.705353 
	C1419.484009,262.350952 1413.450806,255.978088 1404.377563,252.211319 
	C1389.560425,246.059891 1374.320068,245.418274 1358.965088,249.888763 
	C1346.123169,253.627563 1337.964111,261.734802 1336.777832,275.596832 
	C1336.310669,281.057190 1336.036743,286.551971 1336.037109,292.031067 
	C1336.038086,306.204407 1340.867920,317.893036 1353.207642,326.028992 
	C1363.477661,332.800476 1373.618896,339.818665 1383.337036,347.347626 
	C1386.655273,349.918396 1389.887085,354.079193 1390.732910,358.032440 
	C1392.169678,364.747345 1392.395264,371.932892 1391.824219,378.812286 
	C1391.115723,387.348938 1383.729614,391.690216 1376.041626,389.214905 
	C1370.955444,387.577301 1369.105103,383.652008 1368.963135,378.876251 
	C1368.737183,371.279663 1368.902710,363.671448 1368.902710,356.092712 
	C1357.831909,356.092712 1347.610596,356.092712 1336.614868,356.092712 
	C1337.230591,364.609711 1337.570312,372.728912 1338.462158,380.787018 
	C1339.608643,391.145081 1344.962769,398.977844 1354.466919,403.311096 
	C1374.001831,412.217529 1393.415771,412.011475 1412.285400,401.250580 
	C1418.197510,397.879089 1422.431519,392.747925 1423.006348,385.850555 
	C1423.816528,376.129059 1424.193481,366.336975 1424.090576,356.582062 
	C1423.942993,342.584015 1417.493652,331.772766 1405.925659,323.996826 
	C1398.476318,318.989288 1390.835571,314.251648 1383.558838,309.007050 
	C1378.896729,305.646820 1374.741211,301.583588 1370.028320,297.139832 
M1234.319092,496.899139 
	C1230.681885,489.762360 1230.129761,482.262329 1231.906128,474.569641 
	C1233.405640,468.076233 1238.145264,464.432404 1243.991211,465.012848 
	C1249.699707,465.579681 1252.742920,469.133514 1253.082520,476.131622 
	C1253.305420,480.723511 1253.124512,485.335052 1253.124512,489.897858 
	C1264.183105,489.897858 1274.405273,489.897858 1285.181763,489.897858 
	C1284.809570,484.368347 1284.276855,479.257874 1284.157593,474.137726 
	C1283.852051,461.013672 1276.626099,453.246979 1264.843262,449.208069 
	C1250.599976,444.325867 1236.084717,443.912231 1221.695557,448.341705 
	C1209.782227,452.009033 1202.000854,459.788879 1200.312012,472.663147 
	C1199.987549,475.137238 1199.799927,477.630127 1199.582397,480.117249 
	C1197.872070,499.665222 1202.126587,516.336914 1220.563965,527.132996 
	C1229.436279,532.328247 1237.754272,538.540100 1245.989624,544.734985 
	C1255.588623,551.955444 1259.439697,571.437805 1253.820312,582.079285 
	C1251.475586,586.519226 1246.926392,588.779236 1241.640137,587.989075 
	C1236.621338,587.238770 1233.284058,584.443359 1232.847290,579.276611 
	C1232.316162,572.993469 1232.242310,566.670654 1232.014893,560.363464 
	C1231.939941,558.282715 1232.003174,556.197083 1232.003174,554.273926 
	C1221.189209,554.273926 1211.083862,554.273926 1201.271729,554.273926 
	C1201.271729,561.352295 1200.908569,568.175537 1201.350952,574.946106 
	C1202.155029,587.253174 1207.312134,597.109985 1219.151245,602.219543 
	C1237.234009,610.023865 1255.302002,609.959106 1273.084473,601.173340 
	C1281.253296,597.137390 1286.549805,590.696350 1287.072388,581.379089 
	C1287.601562,571.945923 1288.000732,562.449951 1287.520508,553.029175 
	C1286.863037,540.125610 1280.793335,529.919495 1269.947510,522.678711 
	C1263.173340,518.156250 1256.345093,513.705872 1249.714966,508.979309 
	C1244.607178,505.337982 1239.770142,501.316833 1234.319092,496.899139 
M1377.491455,538.280640 
	C1380.648193,538.157043 1383.816284,538.162964 1386.959717,537.888062 
	C1403.061523,536.480408 1410.475952,529.003418 1410.932007,513.054138 
	C1411.264648,501.423065 1411.206665,489.767792 1410.900635,478.134430 
	C1410.435547,460.460571 1402.611450,451.604279 1384.952881,450.194244 
	C1370.554077,449.044525 1356.040039,449.317230 1341.576050,449.011597 
	C1337.140991,448.917877 1332.702148,448.996979 1328.310059,448.996979 
	C1328.310059,501.067932 1328.310059,552.590088 1328.310059,603.919434 
	C1339.862061,603.919434 1351.098511,603.919434 1362.736816,603.919434 
	C1362.736816,581.979431 1362.736816,560.395813 1362.736816,538.280640 
	C1367.594604,538.280640 1372.047363,538.280640 1377.491455,538.280640 
M1661.895752,343.614868 
	C1661.895752,341.662170 1661.895752,339.709473 1661.895752,337.184937 
	C1670.922852,337.184937 1679.476318,337.184937 1688.031738,337.184937 
	C1688.031738,329.341034 1688.031738,322.077118 1688.031738,314.227173 
	C1679.250854,314.227173 1670.705444,314.227173 1662.295044,314.227173 
	C1662.295044,300.929657 1662.295044,288.227051 1662.295044,275.235229 
	C1671.631836,275.235229 1680.573730,275.235229 1689.643555,275.235229 
	C1689.643555,266.903320 1689.643555,258.875549 1689.643555,251.116638 
	C1668.724365,251.116638 1648.168457,251.116638 1627.584473,251.116638 
	C1627.584473,302.902405 1627.584473,354.286499 1627.584473,405.788879 
	C1649.448486,405.788879 1671.025024,405.788879 1692.612061,405.788879 
	C1692.612061,397.548920 1692.612061,389.530792 1692.612061,381.218567 
	C1682.281860,381.218567 1672.342163,381.218567 1661.895752,381.218567 
	C1661.895752,368.810425 1661.895752,356.700806 1661.895752,343.614868 
M2009.330200,275.278717 
	C2010.727783,275.147156 2012.125488,275.015625 2013.373291,274.898163 
	C2013.373291,266.580139 2013.373291,258.825073 2013.373291,251.106659 
	C1992.331543,251.106659 1971.615356,251.106659 1951.008667,251.106659 
	C1951.008667,302.886963 1951.008667,354.281403 1951.008667,405.721863 
	C1972.872070,405.721863 1994.446899,405.721863 2015.952637,405.721863 
	C2015.952637,397.529846 2015.952637,389.621674 2015.952637,381.281128 
	C2005.556396,381.281128 1995.478882,381.281128 1985.290283,381.281128 
	C1985.290283,366.444427 1985.290283,352.052277 1985.290283,337.151978 
	C1994.139648,337.151978 2002.713379,337.151978 2011.253418,337.151978 
	C2011.253418,329.266937 2011.253418,321.899323 2011.253418,314.237244 
	C2002.364746,314.237244 1993.915405,314.237244 1985.249268,314.237244 
	C1985.249268,301.192139 1985.249268,288.459442 1985.249268,275.278809 
	C1993.113525,275.278809 2000.737305,275.278809 2009.330200,275.278717 
M1921.104858,471.118988 
	C1922.321289,471.980835 1923.513184,473.544739 1924.758179,473.588135 
	C1931.705688,473.830353 1938.665894,473.704498 1946.051025,473.704498 
	C1946.051025,517.361267 1946.051025,560.605896 1946.051025,604.038330 
	C1957.751099,604.038330 1969.014160,604.038330 1980.773560,604.038330 
	C1980.773560,560.553955 1980.773560,517.328064 1980.773560,473.508209 
	C1989.312622,473.508209 1997.369873,473.508209 2005.348267,473.508209 
	C2005.348267,465.001831 2005.348267,457.098602 2005.348267,449.360748 
	C1977.089478,449.360748 1949.188599,449.360748 1921.102661,449.360748 
	C1921.102661,456.545654 1921.102661,463.364258 1921.104858,471.118988 
M1897.702759,315.500092 
	C1897.702759,302.237183 1897.702759,288.974274 1897.702759,275.093842 
	C1906.336670,275.093842 1914.379272,275.093842 1922.433716,275.093842 
	C1922.433716,266.706329 1922.433716,258.948029 1922.433716,251.002335 
	C1894.285522,251.002335 1866.406860,251.002335 1838.414185,251.002335 
	C1838.414185,259.187042 1838.414185,267.081512 1838.414185,275.513367 
	C1846.774902,275.513367 1854.836670,275.513367 1863.290283,275.513367 
	C1863.290283,319.276062 1863.290283,362.497864 1863.290283,405.675964 
	C1874.937622,405.675964 1886.161377,405.675964 1897.702637,405.675964 
	C1897.702637,375.731598 1897.702637,346.115875 1897.702759,315.500092 
M2214.724121,264.503784 
	C2214.724121,311.575104 2214.724121,358.646423 2214.724121,405.772949 
	C2226.444824,405.772949 2237.532471,405.772949 2249.205322,405.772949 
	C2249.205322,382.859894 2249.205322,360.167603 2249.205322,337.157166 
	C2258.055420,337.157166 2266.322998,337.157166 2274.692871,337.157166 
	C2274.692871,329.434845 2274.692871,322.047455 2274.692871,314.148315 
	C2266.010742,314.148315 2257.624023,314.148315 2249.389648,314.148315 
	C2249.389648,300.916016 2249.389648,288.202240 2249.389648,275.051544 
	C2259.186768,275.051544 2268.600586,275.051544 2277.906494,275.051544 
	C2277.906494,266.708099 2277.906494,258.816010 2277.906494,251.123749 
	C2256.646729,251.123749 2235.758301,251.123749 2214.724121,251.123749 
	C2214.724121,255.516663 2214.724121,259.510620 2214.724121,264.503784 
M758.276917,562.500061 
	C758.276917,533.052063 758.276917,503.604004 758.276917,473.563843 
	C766.850769,473.563843 774.913696,473.563843 782.958862,473.563843 
	C782.958862,465.067596 782.958862,457.170715 782.958862,449.303864 
	C754.730774,449.303864 726.821716,449.303864 699.086182,449.303864 
	C699.086182,457.521210 699.086182,465.430267 699.086182,473.780151 
	C707.512695,473.780151 715.588745,473.780151 724.080811,473.780151 
	C724.080811,517.477112 724.080811,560.719666 724.080811,603.875549 
	C735.725647,603.875549 746.931946,603.875549 758.276917,603.875549 
	C758.276917,590.149780 758.276917,576.824951 758.276917,562.500061 
M1763.276978,505.500092 
	C1763.276978,495.043915 1763.276978,484.587738 1763.276978,473.542389 
	C1771.862427,473.542389 1779.924316,473.542389 1787.946655,473.542389 
	C1787.946655,465.044800 1787.946655,457.150055 1787.946655,449.238434 
	C1759.862549,449.238434 1732.109375,449.238434 1704.229736,449.238434 
	C1704.229736,457.392853 1704.229736,465.306976 1704.229736,473.716248 
	C1712.511963,473.716248 1720.578735,473.716248 1729.070312,473.716248 
	C1729.070312,517.459412 1729.070312,560.708191 1729.070312,603.875854 
	C1740.722900,603.875854 1751.930298,603.875854 1763.276978,603.875854 
	C1763.276978,571.150024 1763.276978,538.825073 1763.276978,505.500092 
M900.893921,259.544037 
	C900.893921,256.755981 900.893921,253.967911 900.893921,251.133331 
	C889.034119,251.133331 877.680908,251.133331 866.426819,251.133331 
	C866.426819,302.951172 866.426819,354.352661 866.426819,405.723938 
	C886.507996,405.723938 906.267090,405.723938 925.954956,405.723938 
	C925.954956,397.529633 925.954956,389.619537 925.954956,381.297791 
	C917.546875,381.297791 909.453857,381.297791 900.893921,381.297791 
	C900.893921,340.763306 900.893921,300.649323 900.893921,259.544037 
M837.694580,390.583374 
	C837.694580,387.641968 837.694580,384.700562 837.694580,381.293274 
	C828.828735,381.293274 820.596375,381.293274 811.970215,381.293274 
	C811.970215,337.581787 811.970215,294.360901 811.970215,251.071930 
	C800.361450,251.071930 789.166748,251.071930 777.940063,251.071930 
	C777.940063,302.804474 777.940063,354.187622 777.940063,405.721069 
	C797.870972,405.721069 817.583801,405.721069 837.694519,405.721069 
	C837.694519,400.821564 837.694519,396.190765 837.694580,390.583374 
M2076.274658,458.522461 
	C2076.274658,455.432800 2076.274658,452.343140 2076.274658,449.223511 
	C2064.556152,449.223511 2053.472656,449.223511 2042.286621,449.223511 
	C2042.286621,500.975616 2042.286621,552.504456 2042.286621,604.021606 
	C2053.660645,604.021606 2064.746826,604.021606 2076.274658,604.021606 
	C2076.274658,555.684875 2076.274658,507.599854 2076.274658,458.522461 
M708.000671,372.500000 
	C708.000671,383.589874 708.000671,394.679749 708.000671,405.771820 
	C719.690796,405.771820 730.783813,405.771820 741.948059,405.771820 
	C741.948059,354.036774 741.948059,302.529846 741.948059,250.964233 
	C730.545349,250.964233 719.470825,250.964233 708.000671,250.964233 
	C708.000671,291.301208 708.000671,331.400604 708.000671,372.500000 
M989.274658,294.500092 
	C989.274658,280.061127 989.274658,265.622131 989.274658,251.071594 
	C977.600769,251.071594 966.418335,251.071594 955.215820,251.071594 
	C955.215820,302.810242 955.215820,354.202301 955.215820,405.692932 
	C966.652832,405.692932 977.872437,405.692932 989.274719,405.692932 
	C989.274719,368.757996 989.274719,332.129059 989.274658,294.500092 
M1300.337891,405.999207 
	C1304.296387,406.822876 1304.026245,404.256744 1304.024414,401.613068 
	C1303.990356,352.647034 1304.001465,303.680969 1303.987549,254.714905 
	C1303.987183,253.434845 1303.810669,252.154846 1303.726074,251.008484 
	C1292.285767,251.008484 1281.194946,251.008484 1270.083252,251.008484 
	C1270.083252,302.786652 1270.083252,354.281677 1270.083252,405.999268 
	C1280.082886,405.999268 1289.726074,405.999268 1300.337891,405.999207 
z"/>
<path fill="#F16023" opacity="1.000000" stroke="none" 
	d="
M398.130798,531.000000 
	C398.130829,427.055420 398.130829,323.610840 398.130829,219.698914 
	C310.846039,219.698914 224.092819,219.698914 136.977463,219.698914 
	C136.616577,216.851105 136.045151,214.417175 136.039703,211.981995 
	C135.976822,183.817642 136.092178,155.652496 135.904099,127.489281 
	C135.874374,123.040108 137.218369,121.906990 141.580643,121.909843 
	C304.401276,122.016167 467.221985,121.998962 630.042664,122.008278 
	C631.501160,122.008362 632.959656,122.140747 634.628418,122.221542 
	C634.628418,154.624893 634.628418,186.731323 634.628418,219.351318 
	C595.658997,219.351318 556.735107,219.351318 517.225037,219.351318 
	C517.225037,345.053314 517.225037,470.244843 517.225037,595.717773 
	C477.380798,595.717773 438.123077,595.717773 398.130768,595.717773 
	C398.130768,574.342834 398.130768,552.921448 398.130798,531.000000 
z"/>
<path fill="#F16123" opacity="1.000000" stroke="none" 
	d="
M483.000000,741.001160 
	C408.503662,741.068176 334.507355,741.145813 260.511017,741.197937 
	C218.639801,741.227417 178.479538,733.444519 140.651901,714.946228 
	C137.981964,713.640686 136.709412,712.205994 136.717010,708.973328 
	C136.833344,659.307495 136.798172,609.641357 136.804123,559.975281 
	C136.804199,559.316101 136.880417,558.656982 136.973663,557.145630 
	C137.818146,558.484741 138.381516,559.150818 138.701691,559.918335 
	C157.194214,604.251221 191.299576,629.692810 237.238556,639.790771 
	C251.252914,642.871277 265.931030,644.129700 280.310272,644.165466 
	C410.307953,644.488647 540.306763,644.354675 670.305237,644.354675 
	C672.455383,644.354675 674.605469,644.354675 677.199524,644.354675 
	C677.199524,676.566223 677.199524,708.444702 677.199524,741.001160 
	C612.675049,741.001160 548.087524,741.001160 483.000000,741.001160 
z"/>
<path fill="#F16023" opacity="1.000000" stroke="none" 
	d="
M347.893127,261.798950 
	C350.009827,261.798920 351.641174,261.798920 353.569427,261.798920 
	C353.569427,293.649353 353.569427,325.051575 353.569427,356.967590 
	C351.778412,357.046295 350.018646,357.189911 348.258850,357.190948 
	C323.602203,357.205658 298.941925,356.934662 274.289886,357.271729 
	C246.602570,357.650299 220.148453,363.528442 195.745560,377.069183 
	C169.980026,391.366089 151.046219,411.932800 139.542252,439.179901 
	C139.024857,440.405396 138.472046,441.616119 137.921707,442.827362 
	C137.865707,442.950592 137.712479,443.029633 137.159195,443.539093 
	C137.021515,442.094666 136.813431,440.927795 136.813019,439.760864 
	C136.796692,392.280151 136.832352,344.799408 136.726608,297.318909 
	C136.719315,294.040588 137.663528,292.296204 140.663483,290.790405 
	C172.604889,274.757812 206.454010,264.976593 242.022369,263.272247 
	C277.093811,261.591705 312.274841,262.196747 347.893127,261.798950 
z"/>
<path fill="#F16123" opacity="1.000000" stroke="none" 
	d="
M10.842403,522.070129 
	C13.883996,577.066833 31.312744,626.537598 67.444862,668.736511 
	C83.845154,687.890442 103.293663,703.394287 125.058174,716.088074 
	C126.693291,717.041687 128.477188,719.460205 128.492432,721.212585 
	C128.712677,746.532227 128.644455,771.854431 128.628006,797.176025 
	C128.627502,797.974121 128.441299,798.772034 128.316620,799.770752 
	C88.868073,799.770752 49.630150,799.770752 9.848520,799.770752 
	C9.848520,707.379456 9.848520,615.155823 10.128787,522.490601 
	C10.409054,522.048950 10.842403,522.070129 10.842403,522.070129 
z"/>
<path fill="#F16124" opacity="1.000000" stroke="none" 
	d="
M9.934177,493.997620 
	C9.888126,492.167969 9.801930,490.338318 9.801790,488.508667 
	C9.795176,402.567719 9.796025,316.626740 9.796025,230.685791 
	C9.796025,228.741440 9.796025,226.797073 9.796025,224.657043 
	C49.600739,224.657043 88.813957,224.657043 128.337830,224.657043 
	C128.453568,226.387680 128.633545,227.838745 128.635071,229.290009 
	C128.654312,247.444183 128.576599,265.598907 128.717239,283.752014 
	C128.740875,286.802155 127.764221,288.496246 125.133652,290.051300 
	C65.531158,325.284821 30.611391,377.918701 17.047300,445.115875 
	C13.868928,460.861664 12.945351,477.062592 10.696918,493.519806 
	C10.409423,493.985504 9.934177,493.997620 9.934177,493.997620 
z"/>
<path fill="#F16123" opacity="1.000000" stroke="none" 
	d="
M48.000000,115.000992 
	C35.188198,115.000992 22.876392,115.000992 10.182262,115.000992 
	C10.182262,80.044418 10.182262,45.339294 10.182262,10.315900 
	C49.353672,10.315900 88.601021,10.315900 128.246857,10.315900 
	C128.246857,44.941734 128.246857,79.642693 128.246857,115.000992 
	C101.667061,115.000992 75.083534,115.000992 48.000000,115.000992 
z"/>
<path fill="#132B4D" opacity="1.000000" stroke="none" 
	d="
M2290.743896,483.180511 
	C2294.690430,495.391571 2298.518555,507.223999 2302.324707,518.988037 
	C2310.297119,519.509521 2310.297852,519.509521 2310.298096,512.031555 
	C2310.298584,492.867279 2310.298340,473.703003 2310.298340,454.538727 
	C2310.298340,452.896698 2310.298340,451.254669 2310.298340,449.310974 
	C2319.533447,449.310974 2328.429932,449.310974 2337.612793,449.310974 
	C2337.612793,500.733215 2337.612793,552.138550 2337.612793,604.263550 
	C2328.196289,604.263550 2318.774170,604.407715 2309.369385,604.066589 
	C2308.290527,604.027466 2306.851074,601.416260 2306.353027,599.764343 
	C2299.836426,578.148071 2293.460449,556.489380 2287.041748,534.843567 
	C2286.904297,534.380493 2286.681641,533.942688 2286.278564,532.951721 
	C2283.966797,533.279846 2281.583740,533.618103 2278.811035,534.011658 
	C2278.811035,557.250610 2278.811035,580.353210 2278.811035,603.868042 
	C2269.525879,603.868042 2260.636963,603.868042 2251.423828,603.868042 
	C2251.423828,552.577332 2251.423828,501.158661 2251.423828,449.367126 
	C2260.671631,449.367126 2270.068848,449.367126 2279.684814,449.367126 
	C2283.305908,460.433167 2286.965820,471.617523 2290.743896,483.180511 
z"/>
<path fill="#122B4C" opacity="1.000000" stroke="none" 
	d="
M1072.301147,466.002197 
	C1072.301147,460.199982 1072.301147,454.897278 1072.301147,449.006836 
	C1081.584106,449.006836 1090.518188,448.902740 1099.441650,449.162750 
	C1100.366699,449.189697 1101.619995,451.251892 1102.061157,452.587677 
	C1109.088257,473.859528 1116.005859,495.167603 1122.958740,516.463989 
	C1123.262817,517.395447 1123.668701,518.293640 1124.153809,519.529907 
	C1126.615234,519.235779 1129.015015,518.948975 1131.791748,518.617188 
	C1131.791748,495.445679 1131.791748,472.534576 1131.791748,449.311279 
	C1141.081055,449.311279 1149.962158,449.311279 1159.063721,449.311279 
	C1159.063721,500.831146 1159.063721,552.234985 1159.063721,604.248535 
	C1149.553833,604.248535 1140.122681,604.348755 1130.701538,604.090393 
	C1129.779297,604.065063 1128.500122,601.959473 1128.090332,600.606384 
	C1121.739014,579.634460 1115.506348,558.626587 1109.236938,537.629822 
	C1108.772583,536.074524 1108.238037,534.540222 1107.663940,532.773926 
	C1105.114258,533.209656 1102.843872,533.597656 1100.049316,534.075195 
	C1100.049316,557.240845 1100.049316,580.445435 1100.049316,603.962891 
	C1090.629639,603.962891 1081.739136,603.962891 1072.301147,603.962891 
	C1072.301147,558.044922 1072.301147,512.273315 1072.301147,466.002197 
z"/>
<path fill="#122A4C" opacity="1.000000" stroke="none" 
	d="
M1753.273560,255.540131 
	C1759.896851,275.795197 1766.366089,295.670837 1772.855103,315.540070 
	C1775.070068,322.322418 1775.092651,322.315063 1782.615601,319.682617 
	C1782.615601,297.018890 1782.615601,274.243622 1782.615601,251.095032 
	C1791.781982,251.095032 1800.650635,251.095032 1809.763184,251.095032 
	C1809.763184,302.499939 1809.763184,353.911255 1809.763184,405.662781 
	C1799.964478,405.662781 1790.074219,405.662781 1779.764771,405.662781 
	C1772.817139,382.311981 1765.821289,358.799591 1758.670532,334.766327 
	C1756.171021,335.053436 1753.629639,335.345337 1750.743408,335.676849 
	C1750.743408,359.193909 1750.743408,382.288971 1750.743408,405.691345 
	C1741.459473,405.691345 1732.566650,405.691345 1723.389160,405.691345 
	C1723.389160,354.283661 1723.389160,302.899384 1723.389160,250.734528 
	C1732.248779,250.734528 1741.158691,250.584351 1750.049316,250.929703 
	C1751.128418,250.971634 1752.103760,253.683655 1753.273560,255.540131 
z"/>
<path fill="#132B4D" opacity="1.000000" stroke="none" 
	d="
M1155.340698,260.351837 
	C1170.122925,243.689117 1204.182617,243.592087 1220.266357,255.595535 
	C1227.932983,261.317291 1232.808838,268.859467 1234.059204,278.406250 
	C1234.769531,283.829926 1235.218506,289.329865 1235.226685,294.796295 
	C1235.262939,319.078186 1234.823975,343.363251 1235.077881,367.641724 
	C1235.356567,394.304901 1218.473022,408.153229 1195.218384,409.069550 
	C1187.386353,409.378082 1179.186157,408.498108 1171.647827,406.393585 
	C1156.456421,402.152527 1146.505615,389.399719 1146.266113,373.650665 
	C1145.805908,343.390625 1145.967773,313.117584 1146.216064,282.852722 
	C1146.284424,274.518860 1149.456421,266.957672 1155.340698,260.351837 
M1182.772095,386.610321 
	C1186.020996,389.955811 1189.843140,390.715515 1194.182129,389.138000 
	C1198.339844,387.626404 1199.864868,384.308105 1200.256104,380.234863 
	C1200.525879,377.425049 1200.956421,374.611694 1200.965332,371.798859 
	C1201.054077,343.653534 1201.113159,315.507904 1201.061646,287.362610 
	C1201.053833,283.057343 1200.730713,278.705627 1200.033325,274.460907 
	C1199.211670,269.461273 1195.942261,266.984680 1191.032715,266.893707 
	C1185.911133,266.798859 1182.119141,269.394012 1181.021118,274.081512 
	C1180.418335,276.654755 1179.993164,279.338104 1179.988892,281.972626 
	C1179.938232,313.115204 1179.911011,344.258301 1180.099609,375.399933 
	C1180.121216,378.945251 1181.494751,382.482422 1182.772095,386.610321 
z"/>
<path fill="#122B4D" opacity="1.000000" stroke="none" 
	d="
M2159.413086,607.683716 
	C2154.721191,606.866455 2150.379150,606.414124 2146.265869,605.192566 
	C2130.890137,600.626282 2120.510742,590.471924 2119.991699,574.363403 
	C2118.973877,542.778137 2118.758545,511.109497 2119.886719,479.535217 
	C2120.517090,461.887207 2132.010986,450.974579 2149.345459,447.054993 
	C2161.637207,444.275604 2173.855225,444.676208 2185.571289,449.520599 
	C2199.302002,455.197815 2207.396484,465.855438 2207.698486,480.571808 
	C2208.326172,511.175262 2208.281250,541.807007 2207.756104,572.414124 
	C2207.443359,590.625916 2193.409912,604.439026 2174.298340,606.856567 
	C2169.529053,607.459839 2164.680176,607.432861 2159.413086,607.683716 
M2153.001953,533.500000 
	C2153.001953,542.819153 2152.892822,552.140015 2153.040771,561.456848 
	C2153.138184,567.593506 2153.355225,573.750061 2153.983887,579.849792 
	C2154.520264,585.049988 2157.989014,587.911438 2162.957031,588.100647 
	C2168.285400,588.303528 2171.951172,585.711121 2173.059082,580.492493 
	C2173.709717,577.427917 2174.049561,574.240906 2174.065430,571.106750 
	C2174.204102,543.485168 2174.290771,515.862976 2174.255859,488.241150 
	C2174.249512,483.111267 2173.988037,477.926025 2173.194336,472.868347 
	C2172.380127,467.682251 2168.696533,464.962646 2163.860107,465.003784 
	C2158.828613,465.046631 2154.924316,468.116028 2154.030029,473.172577 
	C2153.425049,476.593536 2153.067383,480.102478 2153.046143,483.574799 
	C2152.946777,499.882690 2153.001953,516.191528 2153.001953,533.500000 
z"/>
<path fill="#122B4D" opacity="1.000000" stroke="none" 
	d="
M2305.718262,342.999969 
	C2305.819824,325.351746 2305.727783,308.199738 2306.064941,291.056152 
	C2306.677246,259.905334 2326.267334,243.436798 2357.381592,247.451019 
	C2371.593018,249.284500 2383.663086,254.352524 2390.951416,267.647156 
	C2395.388916,275.741547 2395.512695,284.683594 2395.560791,293.394653 
	C2395.704834,319.519928 2395.631348,345.659668 2394.888184,371.772339 
	C2394.289795,392.798248 2381.304199,406.712494 2360.271484,408.597809 
	C2351.178955,409.412842 2341.517822,408.811249 2332.688721,406.581665 
	C2315.890137,402.339478 2306.865723,388.969055 2306.149170,369.958252 
	C2305.816895,361.145935 2305.850586,352.319855 2305.718262,342.999969 
M2361.302979,354.500122 
	C2361.302979,332.367401 2361.351807,310.234528 2361.262451,288.102142 
	C2361.244385,283.635590 2361.100586,279.098480 2360.302734,274.723755 
	C2359.248535,268.943787 2356.121826,266.755768 2350.560059,266.892609 
	C2345.437500,267.018677 2341.867188,270.005615 2341.012695,275.269348 
	C2340.455566,278.703308 2340.054199,282.205627 2340.044678,285.678558 
	C2339.968506,313.635437 2339.962402,341.592773 2340.045166,369.549622 
	C2340.057373,373.687531 2340.398926,377.862213 2341.030029,381.951630 
	C2341.927979,387.766876 2347.071289,390.939301 2352.843262,389.607025 
	C2358.091797,388.395569 2360.614502,384.909821 2360.951904,377.454346 
	C2361.282471,370.145935 2361.202637,362.818970 2361.302979,354.500122 
z"/>
<path fill="#11294B" opacity="1.000000" stroke="none" 
	d="
M1111.276245,333.000122 
	C1111.276245,357.477722 1111.276245,381.455353 1111.276245,405.716187 
	C1101.264404,405.716187 1091.492554,405.716187 1081.141235,405.716187 
	C1074.177002,382.344055 1067.134033,358.707672 1059.983154,334.708862 
	C1057.322388,335.018860 1054.904785,335.300537 1052.220459,335.613281 
	C1052.220459,359.046478 1052.220459,382.149719 1052.220459,405.626160 
	C1043.045288,405.626160 1034.166870,405.626160 1025.003662,405.626160 
	C1025.003662,354.257843 1025.003662,302.852234 1025.003662,250.753708 
	C1033.856445,250.753708 1042.783936,250.597961 1051.690308,250.959290 
	C1052.752197,251.002365 1054.084961,253.737167 1054.642090,255.437317 
	C1061.257202,275.626617 1067.741821,295.858673 1074.285400,316.071533 
	C1074.836914,317.775146 1075.566650,319.421082 1076.327515,321.388000 
	C1078.950317,320.969971 1081.361938,320.585632 1084.114502,320.146942 
	C1084.114502,296.919647 1084.114502,273.981201 1084.114502,250.947815 
	C1093.265869,250.947815 1102.019531,250.947815 1111.276245,250.947815 
	C1111.276245,278.279175 1111.276245,305.389648 1111.276245,333.000122 
z"/>
<path fill="#122A4C" opacity="1.000000" stroke="none" 
	d="
M1538.997070,502.000793 
	C1538.727417,525.468323 1538.983765,548.458618 1538.016968,571.397339 
	C1537.196411,590.866272 1524.967407,603.913025 1505.584595,606.588013 
	C1497.640015,607.684448 1489.186035,607.739929 1481.327393,606.293701 
	C1460.880127,602.530823 1450.039795,590.230286 1449.545044,568.382080 
	C1448.863525,538.279053 1449.283691,508.122467 1450.277588,478.023376 
	C1450.709473,464.940399 1458.664551,455.353363 1470.718994,450.124817 
	C1485.727539,443.614960 1501.152710,443.563995 1516.258423,449.786560 
	C1529.595947,455.280762 1536.801758,465.699951 1537.963013,480.076385 
	C1538.538330,487.199219 1538.663574,494.358429 1538.997070,502.000793 
M1504.741333,520.500061 
	C1504.741333,519.500854 1504.754028,518.501404 1504.739502,517.502380 
	C1504.537964,503.692749 1504.503540,489.877594 1504.058960,476.075684 
	C1503.823853,468.780914 1500.311890,465.141785 1494.445801,464.990631 
	C1488.343750,464.833435 1484.559082,468.668091 1483.874512,475.784851 
	C1483.604126,478.596130 1483.289429,481.419281 1483.285034,484.237488 
	C1483.241455,512.215881 1483.229614,540.194397 1483.292725,568.172729 
	C1483.301270,571.988647 1483.549072,575.834229 1484.074951,579.611877 
	C1484.901978,585.552063 1489.006592,588.602966 1494.931641,588.065735 
	C1500.578003,587.553772 1503.892090,583.754272 1504.051514,576.414368 
	C1504.448853,558.113281 1504.531982,539.805298 1504.741333,520.500061 
z"/>
<path fill="#132B4D" opacity="1.000000" stroke="none" 
	d="
M1668.004150,493.908081 
	C1667.984253,495.225616 1667.978394,496.058594 1667.942017,496.890289 
	C1667.248901,512.716553 1664.411499,516.035522 1648.288086,519.320129 
	C1648.136230,521.568604 1647.973267,523.980286 1647.797852,526.575073 
	C1650.751343,527.700928 1653.528809,528.684692 1656.247192,529.810608 
	C1663.006836,532.610352 1667.363037,537.863892 1667.526123,544.955200 
	C1667.977295,564.560669 1667.682251,584.183350 1667.682251,604.040833 
	C1657.534668,604.040833 1647.457520,604.040833 1636.716919,604.040833 
	C1636.716919,602.238403 1636.728149,600.478149 1636.715210,598.718079 
	C1636.582642,580.741150 1636.855347,562.748474 1636.160278,544.793152 
	C1635.730347,533.682800 1632.208740,531.037170 1621.198120,530.713684 
	C1619.581299,530.666138 1617.961914,530.707092 1615.866455,530.707092 
	C1615.866455,555.366699 1615.866455,579.599060 1615.866455,604.053833 
	C1604.281982,604.053833 1593.178711,604.053833 1581.686523,604.053833 
	C1581.686523,552.468445 1581.686523,500.967072 1581.686523,449.524414 
	C1598.869629,449.524414 1615.969604,449.436279 1633.067627,449.588013 
	C1637.197388,449.624634 1641.342651,450.309326 1645.441528,450.947357 
	C1656.124390,452.610046 1663.144043,459.065186 1665.548828,469.223083 
	C1667.400513,477.045105 1667.259277,485.338959 1668.004150,493.908081 
M1615.887817,493.499664 
	C1615.887817,499.922333 1615.887817,506.344971 1615.887817,513.064148 
	C1618.684082,513.064148 1620.976685,513.155884 1623.259644,513.047791 
	C1631.864380,512.640320 1635.323364,509.705414 1636.251953,501.202637 
	C1636.825562,495.949982 1636.698730,490.609711 1636.705322,485.308533 
	C1636.721924,471.867859 1629.314209,466.277344 1615.887817,469.661530 
	C1615.887817,477.246216 1615.887817,484.873047 1615.887817,493.499664 
z"/>
<path fill="#122A4C" opacity="1.000000" stroke="none" 
	d="
M2464.280518,354.000305 
	C2464.280518,371.475037 2464.280518,388.449829 2464.280518,405.713257 
	C2452.950928,405.713257 2441.846191,405.713257 2430.368652,405.713257 
	C2430.368652,354.387024 2430.368652,302.862946 2430.368652,250.808853 
	C2443.197266,250.808853 2456.112061,250.670273 2469.022217,250.863571 
	C2476.165527,250.970520 2483.309326,251.519547 2490.437500,252.069916 
	C2503.363281,253.067902 2512.835205,260.475800 2514.642578,273.231140 
	C2516.164551,283.970886 2516.152832,295.077148 2515.463867,305.935120 
	C2514.886719,315.030182 2510.852539,318.191132 2501.901123,319.964233 
	C2500.298584,320.281647 2498.701660,320.625854 2497.022461,320.974274 
	C2496.794434,323.528900 2496.589355,325.826569 2496.365479,328.333893 
	C2499.363770,329.471619 2502.346924,330.428101 2505.180664,331.713928 
	C2511.781250,334.708984 2515.897949,339.810760 2515.977539,347.144318 
	C2516.187988,366.579498 2516.049072,386.018402 2516.049072,405.730408 
	C2506.197021,405.730408 2496.101562,405.730408 2485.302246,405.730408 
	C2485.302246,404.036804 2485.308105,402.278290 2485.301270,400.519836 
	C2485.238037,384.031006 2485.172363,367.542175 2485.107666,351.053345 
	C2485.106201,350.720184 2485.109863,350.386993 2485.106445,350.053864 
	C2484.959717,335.340210 2479.656250,330.782288 2464.280518,332.772156 
	C2464.280518,339.617157 2464.280518,346.558746 2464.280518,354.000305 
M2465.037842,270.499115 
	C2465.037842,285.186462 2465.037842,299.873810 2465.037842,315.076874 
	C2467.864014,314.914429 2471.006592,314.995941 2474.057617,314.506592 
	C2481.543945,313.305939 2484.395020,310.196930 2484.982178,302.609039 
	C2485.315186,298.302765 2485.361816,293.963013 2485.315674,289.640686 
	C2485.146729,273.781738 2481.892334,270.578766 2465.037842,270.499115 
z"/>
<path fill="#112A4C" opacity="1.000000" stroke="none" 
	d="
M900.838989,534.180420 
	C906.426453,539.910461 906.054382,546.841370 906.050232,553.686646 
	C906.040100,570.321533 906.046936,586.956421 906.046936,603.934082 
	C895.937622,603.934082 885.852600,603.934082 874.999329,603.934082 
	C874.999329,602.584534 874.999329,601.015320 874.999329,599.446106 
	C874.999268,583.785217 874.999329,568.124268 874.999207,552.463379 
	C874.999207,551.463745 875.019775,550.463562 874.994812,549.464539 
	C874.595398,533.486816 870.739624,529.974487 854.165039,530.893860 
	C854.165039,555.115173 854.165039,579.366821 854.165039,603.946411 
	C842.675903,603.946411 831.604126,603.946411 820.126587,603.946411 
	C820.126587,552.605713 820.126587,501.077087 820.126587,449.028320 
	C832.601013,449.028320 845.216125,448.841461 857.822388,449.095306 
	C865.959412,449.259125 874.123474,449.725494 882.203918,450.668793 
	C894.652954,452.122101 902.522095,459.739563 904.331665,471.688110 
	C905.904968,482.076721 905.426636,492.830780 905.248230,503.413116 
	C905.095276,512.485291 899.558655,517.144226 890.840088,518.384644 
	C889.536255,518.570129 888.255676,518.918823 886.476257,519.295227 
	C886.290466,521.660767 886.100159,524.083862 885.972229,525.712830 
	C891.200195,528.640930 895.901062,531.273804 900.838989,534.180420 
M863.874023,469.067810 
	C860.634888,469.067810 857.395813,469.067810 854.273926,469.067810 
	C854.273926,484.021606 854.273926,498.440430 854.273926,513.029724 
	C857.021545,513.029724 859.503296,513.159851 861.967285,513.005798 
	C870.052307,512.500183 873.577881,509.684235 874.418518,501.627228 
	C875.122681,494.878387 875.012268,487.999268 874.702942,481.203278 
	C874.418701,474.959991 871.251465,470.552490 863.874023,469.067810 
z"/>
<path fill="#112A4B" opacity="1.000000" stroke="none" 
	d="
M2085.997803,250.842255 
	C2094.456299,251.432404 2102.514160,251.346634 2110.369141,252.567001 
	C2123.397949,254.591202 2130.929932,263.208191 2132.506836,278.930206 
	C2133.442871,288.260101 2132.498535,297.818726 2131.932129,307.246429 
	C2131.487793,314.644043 2126.550537,318.837555 2119.692627,319.599762 
	C2113.826416,320.251709 2112.355225,322.940552 2113.267578,328.397278 
	C2116.204346,329.531830 2119.501709,330.550323 2122.568115,332.043549 
	C2128.904541,335.129150 2132.731689,340.348969 2132.818848,347.386292 
	C2133.057617,366.699280 2132.901123,386.017090 2132.901123,405.667053 
	C2122.917480,405.667053 2112.696533,405.667053 2102.000000,405.667053 
	C2102.000000,392.032776 2102.048096,378.422852 2101.979248,364.813538 
	C2101.946289,358.325348 2102.120117,351.792694 2101.436279,345.361389 
	C2100.402100,335.633209 2098.043213,333.604279 2088.266846,332.531219 
	C2086.134766,332.297211 2083.954834,332.497040 2081.230469,332.497040 
	C2081.230469,356.760925 2081.230469,381.133087 2081.230469,405.750732 
	C2069.582031,405.750732 2058.496338,405.750732 2047.066040,405.750732 
	C2047.066040,354.244904 2047.066040,302.733978 2047.066040,250.753250 
	C2059.949463,250.753250 2072.727783,250.753250 2085.997803,250.842255 
M2099.254395,275.410217 
	C2094.479492,269.453644 2087.750977,270.919128 2081.276855,270.232239 
	C2081.276855,285.403992 2081.276855,300.081573 2081.276855,315.297882 
	C2085.193115,314.901123 2089.047852,315.224701 2092.297852,313.975525 
	C2095.392090,312.786346 2099.642334,310.390717 2100.281250,307.769287 
	C2102.834961,297.288452 2103.625977,286.528351 2099.254395,275.410217 
z"/>
<path fill="#112A4C" opacity="1.000000" stroke="none" 
	d="
M262.386353,436.208191 
	C294.658325,434.307373 317.766113,456.762390 323.201813,480.951355 
	C330.084381,511.579132 310.738617,542.700073 279.910736,549.801147 
	C249.247772,556.864258 217.795914,537.116699 211.028519,506.552277 
	C203.735733,473.615051 225.058380,442.289001 258.489105,436.824829 
	C259.636871,436.637238 260.783325,436.441833 262.386353,436.208191 
z"/>
<path fill="#122B4C" opacity="1.000000" stroke="none" 
	d="
M957.035278,476.950623 
	C958.272217,467.460785 959.474182,458.414673 960.697571,449.207520 
	C978.957214,449.207520 996.901428,449.207520 1015.161194,449.207520 
	C1022.822815,500.719879 1030.475342,552.171082 1038.180908,603.978271 
	C1026.381348,603.978271 1014.991028,603.978271 1003.319702,603.978271 
	C1002.528076,594.408752 1001.749268,584.994995 1000.942200,575.238403 
	C993.548584,575.238403 986.156006,575.238403 978.351257,575.238403 
	C977.512024,584.654358 976.674988,594.045898 975.800659,603.855896 
	C964.065369,603.855896 952.357361,603.855896 940.149109,603.855896 
	C945.771484,561.662354 951.385925,519.528381 957.035278,476.950623 
M1000.339539,552.596558 
	C998.048157,528.831421 995.756775,505.066284 993.442505,481.064362 
	C990.847717,481.064362 988.415894,481.064362 985.276367,481.064362 
	C982.455261,505.234741 979.637207,529.379211 976.811218,553.591675 
	C985.249939,553.591675 992.821655,553.591675 1000.339539,552.596558 
z"/>
<path fill="#122B4C" opacity="1.000000" stroke="none" 
	d="
M1809.837036,585.713928 
	C1813.103760,560.872375 1816.293823,536.469543 1819.511353,512.070312 
	C1822.011475,493.111145 1824.543091,474.156097 1827.070312,455.200470 
	C1827.332642,453.232788 1827.660278,451.273773 1827.973877,449.203918 
	C1846.110229,449.203918 1864.043701,449.203918 1882.319702,449.203918 
	C1889.992188,500.778656 1897.642090,552.200684 1905.344360,603.975525 
	C1893.583252,603.975525 1882.190308,603.975525 1870.457886,603.975525 
	C1869.672485,594.396545 1868.901123,584.987427 1868.102051,575.241455 
	C1860.625488,575.241455 1853.252319,575.241455 1845.526489,575.241455 
	C1844.664307,584.833130 1843.807007,594.370544 1842.937622,604.041870 
	C1830.971558,604.041870 1819.388428,604.041870 1807.344116,604.041870 
	C1808.179565,597.887085 1808.975830,592.020630 1809.837036,585.713928 
M1849.846313,503.332336 
	C1847.913330,520.091980 1845.980347,536.851562 1844.020142,553.848022 
	C1852.399658,553.848022 1859.974854,553.848022 1867.557617,553.848022 
	C1865.226196,529.378052 1862.920044,505.173340 1860.621094,481.043793 
	C1857.879517,481.043793 1855.439331,481.043793 1852.721924,481.043793 
	C1851.762207,488.308746 1850.828857,495.373169 1849.846313,503.332336 
z"/>
<path fill="#132B4D" opacity="1.000000" stroke="none" 
	d="
M1536.004517,335.000000 
	C1536.293945,350.476227 1536.140869,365.479279 1537.046753,380.418121 
	C1537.551758,388.745789 1546.730835,392.527649 1553.886719,388.213196 
	C1558.397949,385.493256 1558.867554,380.873199 1558.991455,376.412415 
	C1559.240479,367.446625 1559.065552,358.469055 1559.065552,349.108917 
	C1570.846680,349.108917 1582.066650,349.108917 1593.854736,349.108917 
	C1593.928101,361.831268 1594.448608,374.738647 1589.808472,386.870453 
	C1585.800049,397.350861 1576.892456,403.394287 1566.600220,406.599030 
	C1552.223022,411.075806 1537.671875,410.609070 1523.559204,405.029785 
	C1512.924927,400.825562 1505.792114,393.242035 1504.091797,381.688446 
	C1502.763794,372.665375 1501.708740,363.531860 1501.517090,354.426727 
	C1501.138672,336.442810 1501.404907,318.444366 1501.488647,300.452362 
	C1501.511841,295.464752 1501.846924,290.479095 1502.010864,285.491608 
	C1502.599121,267.607208 1511.594849,255.190842 1528.780518,250.006134 
	C1545.900757,244.841171 1562.685181,245.822479 1578.260864,255.456818 
	C1586.031006,260.263031 1590.951782,267.367889 1591.885986,276.506927 
	C1593.129883,288.674652 1593.747559,300.906342 1594.658569,313.445190 
	C1582.281128,313.445190 1571.182861,313.445190 1559.298828,313.445190 
	C1559.298828,311.608002 1559.310059,309.855225 1559.296997,308.102661 
	C1559.223267,298.272827 1559.300293,288.438507 1559.016113,278.614624 
	C1558.792847,270.896881 1555.339355,267.144501 1548.921875,266.897675 
	C1541.247192,266.602539 1537.483154,269.448608 1536.822266,277.567291 
	C1536.067505,286.839813 1536.142578,296.186401 1536.030273,305.502899 
	C1535.913818,315.167297 1536.004517,324.834198 1536.004517,335.000000 
z"/>
<path fill="#122B4D" opacity="1.000000" stroke="none" 
	d="
M1370.193481,297.487671 
	C1374.741211,301.583588 1378.896729,305.646820 1383.558838,309.007050 
	C1390.835571,314.251648 1398.476318,318.989288 1405.925659,323.996826 
	C1417.493652,331.772766 1423.942993,342.584015 1424.090576,356.582062 
	C1424.193481,366.336975 1423.816528,376.129059 1423.006348,385.850555 
	C1422.431519,392.747925 1418.197510,397.879089 1412.285400,401.250580 
	C1393.415771,412.011475 1374.001831,412.217529 1354.466919,403.311096 
	C1344.962769,398.977844 1339.608643,391.145081 1338.462158,380.787018 
	C1337.570312,372.728912 1337.230591,364.609711 1336.614868,356.092712 
	C1347.610596,356.092712 1357.831909,356.092712 1368.902710,356.092712 
	C1368.902710,363.671448 1368.737183,371.279663 1368.963135,378.876251 
	C1369.105103,383.652008 1370.955444,387.577301 1376.041626,389.214905 
	C1383.729614,391.690216 1391.115723,387.348938 1391.824219,378.812286 
	C1392.395264,371.932892 1392.169678,364.747345 1390.732910,358.032440 
	C1389.887085,354.079193 1386.655273,349.918396 1383.337036,347.347626 
	C1373.618896,339.818665 1363.477661,332.800476 1353.207642,326.028992 
	C1340.867920,317.893036 1336.038086,306.204407 1336.037109,292.031067 
	C1336.036743,286.551971 1336.310669,281.057190 1336.777832,275.596832 
	C1337.964111,261.734802 1346.123169,253.627563 1358.965088,249.888763 
	C1374.320068,245.418274 1389.560425,246.059891 1404.377563,252.211319 
	C1413.450806,255.978088 1419.484009,262.350952 1420.214233,272.705353 
	C1420.655151,278.959503 1421.140869,285.210541 1421.628052,291.752655 
	C1410.848755,291.752655 1400.749268,291.752655 1390.389038,291.752655 
	C1390.013306,286.268707 1390.002075,280.642090 1389.156616,275.143707 
	C1388.093628,268.231201 1381.783813,265.016266 1375.291992,267.508728 
	C1370.891235,269.198334 1368.341431,272.854401 1368.293945,277.031616 
	C1368.218140,283.726929 1369.386108,290.436371 1370.193481,297.487671 
z"/>
<path fill="#122B4C" opacity="1.000000" stroke="none" 
	d="
M1234.565918,497.181854 
	C1239.770142,501.316833 1244.607178,505.337982 1249.714966,508.979309 
	C1256.345093,513.705872 1263.173340,518.156250 1269.947510,522.678711 
	C1280.793335,529.919495 1286.863037,540.125610 1287.520508,553.029175 
	C1288.000732,562.449951 1287.601562,571.945923 1287.072388,581.379089 
	C1286.549805,590.696350 1281.253296,597.137390 1273.084473,601.173340 
	C1255.302002,609.959106 1237.234009,610.023865 1219.151245,602.219543 
	C1207.312134,597.109985 1202.155029,587.253174 1201.350952,574.946106 
	C1200.908569,568.175537 1201.271729,561.352295 1201.271729,554.273926 
	C1211.083862,554.273926 1221.189209,554.273926 1232.003174,554.273926 
	C1232.003174,556.197083 1231.939941,558.282715 1232.014893,560.363464 
	C1232.242310,566.670654 1232.316162,572.993469 1232.847290,579.276611 
	C1233.284058,584.443359 1236.621338,587.238770 1241.640137,587.989075 
	C1246.926392,588.779236 1251.475586,586.519226 1253.820312,582.079285 
	C1259.439697,571.437805 1255.588623,551.955444 1245.989624,544.734985 
	C1237.754272,538.540100 1229.436279,532.328247 1220.563965,527.132996 
	C1202.126587,516.336914 1197.872070,499.665222 1199.582397,480.117249 
	C1199.799927,477.630127 1199.987549,475.137238 1200.312012,472.663147 
	C1202.000854,459.788879 1209.782227,452.009033 1221.695557,448.341705 
	C1236.084717,443.912231 1250.599976,444.325867 1264.843262,449.208069 
	C1276.626099,453.246979 1283.852051,461.013672 1284.157593,474.137726 
	C1284.276855,479.257874 1284.809570,484.368347 1285.181763,489.897858 
	C1274.405273,489.897858 1264.183105,489.897858 1253.124512,489.897858 
	C1253.124512,485.335052 1253.305420,480.723511 1253.082520,476.131622 
	C1252.742920,469.133514 1249.699707,465.579681 1243.991211,465.012848 
	C1238.145264,464.432404 1233.405640,468.076233 1231.906128,474.569641 
	C1230.129761,482.262329 1230.681885,489.762360 1234.565918,497.181854 
z"/>
<path fill="#122B4C" opacity="1.000000" stroke="none" 
	d="
M1376.995850,538.280640 
	C1372.047363,538.280640 1367.594604,538.280640 1362.736816,538.280640 
	C1362.736816,560.395813 1362.736816,581.979431 1362.736816,603.919434 
	C1351.098511,603.919434 1339.862061,603.919434 1328.310059,603.919434 
	C1328.310059,552.590088 1328.310059,501.067932 1328.310059,448.996979 
	C1332.702148,448.996979 1337.140991,448.917877 1341.576050,449.011597 
	C1356.040039,449.317230 1370.554077,449.044525 1384.952881,450.194244 
	C1402.611450,451.604279 1410.435547,460.460571 1410.900635,478.134430 
	C1411.206665,489.767792 1411.264648,501.423065 1410.932007,513.054138 
	C1410.475952,529.003418 1403.061523,536.480408 1386.959717,537.888062 
	C1383.816284,538.162964 1380.648193,538.157043 1376.995850,538.280640 
M1382.924072,510.002716 
	C1383.011230,499.565918 1383.345459,489.122772 1383.078857,478.695007 
	C1382.949463,473.632080 1379.451172,470.488129 1374.567261,469.615601 
	C1370.753662,468.934296 1366.805542,469.006989 1362.937866,468.746033 
	C1362.937866,485.689056 1362.937866,501.800537 1362.937866,517.872620 
	C1374.655273,519.621033 1379.068481,518.002380 1382.924072,510.002716 
z"/>
<path fill="#132C4D" opacity="1.000000" stroke="none" 
	d="
M1661.895752,344.103027 
	C1661.895752,356.700806 1661.895752,368.810425 1661.895752,381.218567 
	C1672.342163,381.218567 1682.281860,381.218567 1692.612061,381.218567 
	C1692.612061,389.530792 1692.612061,397.548920 1692.612061,405.788879 
	C1671.025024,405.788879 1649.448486,405.788879 1627.584473,405.788879 
	C1627.584473,354.286499 1627.584473,302.902405 1627.584473,251.116638 
	C1648.168457,251.116638 1668.724365,251.116638 1689.643555,251.116638 
	C1689.643555,258.875549 1689.643555,266.903320 1689.643555,275.235229 
	C1680.573730,275.235229 1671.631836,275.235229 1662.295044,275.235229 
	C1662.295044,288.227051 1662.295044,300.929657 1662.295044,314.227173 
	C1670.705444,314.227173 1679.250854,314.227173 1688.031738,314.227173 
	C1688.031738,322.077118 1688.031738,329.341034 1688.031738,337.184937 
	C1679.476318,337.184937 1670.922852,337.184937 1661.895752,337.184937 
	C1661.895752,339.709473 1661.895752,341.662170 1661.895752,344.103027 
z"/>
<path fill="#112A4C" opacity="1.000000" stroke="none" 
	d="
M2008.845703,275.278748 
	C2000.737305,275.278809 1993.113525,275.278809 1985.249268,275.278809 
	C1985.249268,288.459442 1985.249268,301.192139 1985.249268,314.237244 
	C1993.915405,314.237244 2002.364746,314.237244 2011.253418,314.237244 
	C2011.253418,321.899323 2011.253418,329.266937 2011.253418,337.151978 
	C2002.713379,337.151978 1994.139648,337.151978 1985.290283,337.151978 
	C1985.290283,352.052277 1985.290283,366.444427 1985.290283,381.281128 
	C1995.478882,381.281128 2005.556396,381.281128 2015.952637,381.281128 
	C2015.952637,389.621674 2015.952637,397.529846 2015.952637,405.721863 
	C1994.446899,405.721863 1972.872070,405.721863 1951.008667,405.721863 
	C1951.008667,354.281403 1951.008667,302.886963 1951.008667,251.106659 
	C1971.615356,251.106659 1992.331543,251.106659 2013.373291,251.106659 
	C2013.373291,258.825073 2013.373291,266.580139 2013.373291,274.898163 
	C2012.125488,275.015625 2010.727783,275.147156 2008.845703,275.278748 
z"/>
<path fill="#142C4E" opacity="1.000000" stroke="none" 
	d="
M1921.103760,470.650909 
	C1921.102661,463.364258 1921.102661,456.545654 1921.102661,449.360748 
	C1949.188599,449.360748 1977.089478,449.360748 2005.348267,449.360748 
	C2005.348267,457.098602 2005.348267,465.001831 2005.348267,473.508209 
	C1997.369873,473.508209 1989.312622,473.508209 1980.773560,473.508209 
	C1980.773560,517.328064 1980.773560,560.553955 1980.773560,604.038330 
	C1969.014160,604.038330 1957.751099,604.038330 1946.051025,604.038330 
	C1946.051025,560.605896 1946.051025,517.361267 1946.051025,473.704498 
	C1938.665894,473.704498 1931.705688,473.830353 1924.758179,473.588135 
	C1923.513184,473.544739 1922.321289,471.980835 1921.103760,470.650909 
z"/>
<path fill="#142C4D" opacity="1.000000" stroke="none" 
	d="
M1897.702637,316.000122 
	C1897.702637,346.115875 1897.702637,375.731598 1897.702637,405.675964 
	C1886.161377,405.675964 1874.937622,405.675964 1863.290283,405.675964 
	C1863.290283,362.497864 1863.290283,319.276062 1863.290283,275.513367 
	C1854.836670,275.513367 1846.774902,275.513367 1838.414185,275.513367 
	C1838.414185,267.081512 1838.414185,259.187042 1838.414185,251.002335 
	C1866.406860,251.002335 1894.285522,251.002335 1922.433716,251.002335 
	C1922.433716,258.948029 1922.433716,266.706329 1922.433716,275.093842 
	C1914.379272,275.093842 1906.336670,275.093842 1897.702759,275.093842 
	C1897.702759,288.974274 1897.702759,302.237183 1897.702637,316.000122 
z"/>
<path fill="#10294B" opacity="1.000000" stroke="none" 
	d="
M2214.724121,264.004150 
	C2214.724121,259.510620 2214.724121,255.516663 2214.724121,251.123749 
	C2235.758301,251.123749 2256.646729,251.123749 2277.906494,251.123749 
	C2277.906494,258.816010 2277.906494,266.708099 2277.906494,275.051544 
	C2268.600586,275.051544 2259.186768,275.051544 2249.389648,275.051544 
	C2249.389648,288.202240 2249.389648,300.916016 2249.389648,314.148315 
	C2257.624023,314.148315 2266.010742,314.148315 2274.692871,314.148315 
	C2274.692871,322.047455 2274.692871,329.434845 2274.692871,337.157166 
	C2266.322998,337.157166 2258.055420,337.157166 2249.205322,337.157166 
	C2249.205322,360.167603 2249.205322,382.859894 2249.205322,405.772949 
	C2237.532471,405.772949 2226.444824,405.772949 2214.724121,405.772949 
	C2214.724121,358.646423 2214.724121,311.575104 2214.724121,264.004150 
z"/>
<path fill="#112A4C" opacity="1.000000" stroke="none" 
	d="
M758.276917,563.000122 
	C758.276917,576.824951 758.276917,590.149780 758.276917,603.875549 
	C746.931946,603.875549 735.725647,603.875549 724.080811,603.875549 
	C724.080811,560.719666 724.080811,517.477112 724.080811,473.780151 
	C715.588745,473.780151 707.512695,473.780151 699.086182,473.780151 
	C699.086182,465.430267 699.086182,457.521210 699.086182,449.303864 
	C726.821716,449.303864 754.730774,449.303864 782.958862,449.303864 
	C782.958862,457.170715 782.958862,465.067596 782.958862,473.563843 
	C774.913696,473.563843 766.850769,473.563843 758.276917,473.563843 
	C758.276917,503.604004 758.276917,533.052063 758.276917,563.000122 
z"/>
<path fill="#112A4C" opacity="1.000000" stroke="none" 
	d="
M1763.276978,506.000122 
	C1763.276978,538.825073 1763.276978,571.150024 1763.276978,603.875854 
	C1751.930298,603.875854 1740.722900,603.875854 1729.070312,603.875854 
	C1729.070312,560.708191 1729.070312,517.459412 1729.070312,473.716248 
	C1720.578735,473.716248 1712.511963,473.716248 1704.229736,473.716248 
	C1704.229736,465.306976 1704.229736,457.392853 1704.229736,449.238434 
	C1732.109375,449.238434 1759.862549,449.238434 1787.946655,449.238434 
	C1787.946655,457.150055 1787.946655,465.044800 1787.946655,473.542389 
	C1779.924316,473.542389 1771.862427,473.542389 1763.276978,473.542389 
	C1763.276978,484.587738 1763.276978,495.043915 1763.276978,506.000122 
z"/>
<path fill="#132B4D" opacity="1.000000" stroke="none" 
	d="
M900.893921,260.039673 
	C900.893921,300.649323 900.893921,340.763306 900.893921,381.297791 
	C909.453857,381.297791 917.546875,381.297791 925.954956,381.297791 
	C925.954956,389.619537 925.954956,397.529633 925.954956,405.723938 
	C906.267090,405.723938 886.507996,405.723938 866.426819,405.723938 
	C866.426819,354.352661 866.426819,302.951172 866.426819,251.133331 
	C877.680908,251.133331 889.034119,251.133331 900.893921,251.133331 
	C900.893921,253.967911 900.893921,256.755981 900.893921,260.039673 
z"/>
<path fill="#112A4C" opacity="1.000000" stroke="none" 
	d="
M837.694580,391.071655 
	C837.694519,396.190765 837.694519,400.821564 837.694519,405.721069 
	C817.583801,405.721069 797.870972,405.721069 777.940063,405.721069 
	C777.940063,354.187622 777.940063,302.804474 777.940063,251.071930 
	C789.166748,251.071930 800.361450,251.071930 811.970215,251.071930 
	C811.970215,294.360901 811.970215,337.581787 811.970215,381.293274 
	C820.596375,381.293274 828.828735,381.293274 837.694580,381.293274 
	C837.694580,384.700562 837.694580,387.641968 837.694580,391.071655 
z"/>
<path fill="#10294B" opacity="1.000000" stroke="none" 
	d="
M2076.274658,459.018677 
	C2076.274658,507.599854 2076.274658,555.684875 2076.274658,604.021606 
	C2064.746826,604.021606 2053.660645,604.021606 2042.286621,604.021606 
	C2042.286621,552.504456 2042.286621,500.975616 2042.286621,449.223511 
	C2053.472656,449.223511 2064.556152,449.223511 2076.274658,449.223511 
	C2076.274658,452.343140 2076.274658,455.432800 2076.274658,459.018677 
z"/>
<path fill="#10294B" opacity="1.000000" stroke="none" 
	d="
M708.000671,372.000000 
	C708.000671,331.400604 708.000671,291.301208 708.000671,250.964233 
	C719.470825,250.964233 730.545349,250.964233 741.948059,250.964233 
	C741.948059,302.529846 741.948059,354.036774 741.948059,405.771820 
	C730.783813,405.771820 719.690796,405.771820 708.000671,405.771820 
	C708.000671,394.679749 708.000671,383.589874 708.000671,372.000000 
z"/>
<path fill="#10294B" opacity="1.000000" stroke="none" 
	d="
M989.274658,295.000122 
	C989.274719,332.129059 989.274719,368.757996 989.274719,405.692932 
	C977.872437,405.692932 966.652832,405.692932 955.215820,405.692932 
	C955.215820,354.202301 955.215820,302.810242 955.215820,251.071594 
	C966.418335,251.071594 977.600769,251.071594 989.274658,251.071594 
	C989.274658,265.622131 989.274658,280.061127 989.274658,295.000122 
z"/>
<path fill="#10294B" opacity="1.000000" stroke="none" 
	d="
M1299.853516,405.999237 
	C1289.726074,405.999268 1280.082886,405.999268 1270.083252,405.999268 
	C1270.083252,354.281677 1270.083252,302.786652 1270.083252,251.008484 
	C1281.194946,251.008484 1292.285767,251.008484 1303.726074,251.008484 
	C1303.810669,252.154846 1303.987183,253.434845 1303.987549,254.714905 
	C1304.001465,303.680969 1303.990356,352.647034 1304.024414,401.613068 
	C1304.026245,404.256744 1304.296387,406.822876 1299.853516,405.999237 
z"/>
<path fill="#F79866" opacity="1.000000" stroke="none" 
	d="
M9.732153,494.348877 
	C9.934177,493.997620 10.409423,493.985504 10.646381,493.966797 
	C10.926498,503.010773 10.969658,512.073425 10.927610,521.603149 
	C10.842403,522.070129 10.409054,522.048950 10.193365,522.025696 
	C9.828494,512.901672 9.679312,503.800934 9.732153,494.348877 
z"/>
<path fill="#FEFEFE" opacity="1.000000" stroke="none" 
	d="
M1182.506836,386.316833 
	C1181.494751,382.482422 1180.121216,378.945251 1180.099609,375.399933 
	C1179.911011,344.258301 1179.938232,313.115204 1179.988892,281.972626 
	C1179.993164,279.338104 1180.418335,276.654755 1181.021118,274.081512 
	C1182.119141,269.394012 1185.911133,266.798859 1191.032715,266.893707 
	C1195.942261,266.984680 1199.211670,269.461273 1200.033325,274.460907 
	C1200.730713,278.705627 1201.053833,283.057343 1201.061646,287.362610 
	C1201.113159,315.507904 1201.054077,343.653534 1200.965332,371.798859 
	C1200.956421,374.611694 1200.525879,377.425049 1200.256104,380.234863 
	C1199.864868,384.308105 1198.339844,387.626404 1194.182129,389.138000 
	C1189.843140,390.715515 1186.020996,389.955811 1182.506836,386.316833 
z"/>
<path fill="#FEFEFE" opacity="1.000000" stroke="none" 
	d="
M2153.001953,533.000000 
	C2153.001953,516.191528 2152.946777,499.882690 2153.046143,483.574799 
	C2153.067383,480.102478 2153.425049,476.593536 2154.030029,473.172577 
	C2154.924316,468.116028 2158.828613,465.046631 2163.860107,465.003784 
	C2168.696533,464.962646 2172.380127,467.682251 2173.194336,472.868347 
	C2173.988037,477.926025 2174.249512,483.111267 2174.255859,488.241150 
	C2174.290771,515.862976 2174.204102,543.485168 2174.065430,571.106750 
	C2174.049561,574.240906 2173.709717,577.427917 2173.059082,580.492493 
	C2171.951172,585.711121 2168.285400,588.303528 2162.957031,588.100647 
	C2157.989014,587.911438 2154.520264,585.049988 2153.983887,579.849792 
	C2153.355225,573.750061 2153.138184,567.593506 2153.040771,561.456848 
	C2152.892822,552.140015 2153.001953,542.819153 2153.001953,533.000000 
z"/>
<path fill="#FEFEFE" opacity="1.000000" stroke="none" 
	d="
M2361.302979,355.000122 
	C2361.202637,362.818970 2361.282471,370.145935 2360.951904,377.454346 
	C2360.614502,384.909821 2358.091797,388.395569 2352.843262,389.607025 
	C2347.071289,390.939301 2341.927979,387.766876 2341.030029,381.951630 
	C2340.398926,377.862213 2340.057373,373.687531 2340.045166,369.549622 
	C2339.962402,341.592773 2339.968506,313.635437 2340.044678,285.678558 
	C2340.054199,282.205627 2340.455566,278.703308 2341.012695,275.269348 
	C2341.867188,270.005615 2345.437500,267.018677 2350.560059,266.892609 
	C2356.121826,266.755768 2359.248535,268.943787 2360.302734,274.723755 
	C2361.100586,279.098480 2361.244385,283.635590 2361.262451,288.102142 
	C2361.351807,310.234528 2361.302979,332.367401 2361.302979,355.000122 
z"/>
<path fill="#F9F9FA" opacity="1.000000" stroke="none" 
	d="
M1504.741211,521.000122 
	C1504.531982,539.805298 1504.448853,558.113281 1504.051514,576.414368 
	C1503.892090,583.754272 1500.578003,587.553772 1494.931641,588.065735 
	C1489.006592,588.602966 1484.901978,585.552063 1484.074951,579.611877 
	C1483.549072,575.834229 1483.301270,571.988647 1483.292725,568.172729 
	C1483.229614,540.194397 1483.241455,512.215881 1483.285034,484.237488 
	C1483.289429,481.419281 1483.604126,478.596130 1483.874512,475.784851 
	C1484.559082,468.668091 1488.343750,464.833435 1494.445801,464.990631 
	C1500.311890,465.141785 1503.823853,468.780914 1504.058960,476.075684 
	C1504.503540,489.877594 1504.537964,503.692749 1504.739502,517.502380 
	C1504.754028,518.501404 1504.741333,519.500854 1504.741211,521.000122 
z"/>
<path fill="#FCFCFD" opacity="1.000000" stroke="none" 
	d="
M1615.887817,492.999756 
	C1615.887817,484.873047 1615.887817,477.246216 1615.887817,469.661530 
	C1629.314209,466.277344 1636.721924,471.867859 1636.705322,485.308533 
	C1636.698730,490.609711 1636.825562,495.949982 1636.251953,501.202637 
	C1635.323364,509.705414 1631.864380,512.640320 1623.259644,513.047791 
	C1620.976685,513.155884 1618.684082,513.064148 1615.887817,513.064148 
	C1615.887817,506.344971 1615.887817,499.922333 1615.887817,492.999756 
z"/>
<path fill="#F9F9FA" opacity="1.000000" stroke="none" 
	d="
M2465.465332,270.395447 
	C2481.892334,270.578766 2485.146729,273.781738 2485.315674,289.640686 
	C2485.361816,293.963013 2485.315186,298.302765 2484.982178,302.609039 
	C2484.395020,310.196930 2481.543945,313.305939 2474.057617,314.506592 
	C2471.006592,314.995941 2467.864014,314.914429 2465.037842,315.076874 
	C2465.037842,299.873810 2465.037842,285.186462 2465.465332,270.395447 
z"/>
<path fill="#FDFDFE" opacity="1.000000" stroke="none" 
	d="
M864.293579,469.159485 
	C871.251465,470.552490 874.418701,474.959991 874.702942,481.203278 
	C875.012268,487.999268 875.122681,494.878387 874.418518,501.627228 
	C873.577881,509.684235 870.052307,512.500183 861.967285,513.005798 
	C859.503296,513.159851 857.021545,513.029724 854.273926,513.029724 
	C854.273926,498.440430 854.273926,484.021606 854.273926,469.067810 
	C857.395813,469.067810 860.634888,469.067810 864.293579,469.159485 
z"/>
<path fill="#FDFDFE" opacity="1.000000" stroke="none" 
	d="
M2099.490723,275.713776 
	C2103.625977,286.528351 2102.834961,297.288452 2100.281250,307.769287 
	C2099.642334,310.390717 2095.392090,312.786346 2092.297852,313.975525 
	C2089.047852,315.224701 2085.193115,314.901123 2081.276855,315.297882 
	C2081.276855,300.081573 2081.276855,285.403992 2081.276855,270.232239 
	C2087.750977,270.919128 2094.479492,269.453644 2099.490723,275.713776 
z"/>
<path fill="#FCFCFD" opacity="1.000000" stroke="none" 
	d="
M1000.366455,553.094116 
	C992.821655,553.591675 985.249939,553.591675 976.811218,553.591675 
	C979.637207,529.379211 982.455261,505.234741 985.276367,481.064362 
	C988.415894,481.064362 990.847717,481.064362 993.442505,481.064362 
	C995.756775,505.066284 998.048157,528.831421 1000.366455,553.094116 
z"/>
<path fill="#FCFCFD" opacity="1.000000" stroke="none" 
	d="
M1849.870972,502.884949 
	C1850.828857,495.373169 1851.762207,488.308746 1852.721924,481.043793 
	C1855.439331,481.043793 1857.879517,481.043793 1860.621094,481.043793 
	C1862.920044,505.173340 1865.226196,529.378052 1867.557617,553.848022 
	C1859.974854,553.848022 1852.399658,553.848022 1844.020142,553.848022 
	C1845.980347,536.851562 1847.913330,520.091980 1849.870972,502.884949 
z"/>
<path fill="#FDFDFE" opacity="1.000000" stroke="none" 
	d="
M1382.793701,510.383179 
	C1379.068481,518.002380 1374.655273,519.621033 1362.937866,517.872620 
	C1362.937866,501.800537 1362.937866,485.689056 1362.937866,468.746033 
	C1366.805542,469.006989 1370.753662,468.934296 1374.567261,469.615601 
	C1379.451172,470.488129 1382.949463,473.632080 1383.078857,478.695007 
	C1383.345459,489.122772 1383.011230,499.565918 1382.793701,510.383179 
z"/>
</svg>